<?xml version="1.0" encoding="UTF-8"?>
<svg version="1.1" xmlns="http://www.w3.org/2000/svg" width="512" height="512">
<path d="M0 0 C0.86865692 -0.00067474 1.73731384 -0.00134949 2.6322937 -0.00204468 C16.39421485 0.01490877 29.76867656 0.62125184 43.3125 3.25 C44.66819092 3.50740967 44.66819092 3.50740967 46.05126953 3.77001953 C66.35184238 7.73655367 85.70981905 14.22585849 104.3125 23.25 C105.07771973 23.61963867 105.84293945 23.98927734 106.63134766 24.37011719 C161.15008764 51.04781842 203.91749892 100.33012761 224.10327148 157.41577148 C232.69202757 182.85655568 236.74316233 208.34081841 236.6875 235.125 C236.68728851 236.06787872 236.68707703 237.01075745 236.68685913 237.98220825 C236.65242853 253.40956661 235.64032811 268.13905457 232.3125 283.25 C232.12526367 284.1354248 231.93802734 285.02084961 231.74511719 285.93310547 C218.57423537 347.0901275 180.84632037 399.78747197 128.97265625 434.16015625 C103.73364489 450.39203329 67.25508476 468.97420269 36.3125 468.25 C36.32990234 466.76113281 36.32990234 466.76113281 36.34765625 465.2421875 C36.41938423 456.18653006 36.10243381 447.27781493 35.3125 438.25 C36.27027344 438.01925781 37.22804688 437.78851563 38.21484375 437.55078125 C59.71000027 432.31418653 79.698964 425.60754201 99.3125 415.25 C100.20751221 414.78255371 100.20751221 414.78255371 101.12060547 414.30566406 C113.76325386 407.64050215 125.51977125 399.16243514 135.9296875 389.359375 C137.3125 388.25 137.3125 388.25 139.3125 388.25 C138.89097656 387.63511719 138.46945312 387.02023437 138.03515625 386.38671875 C137.21337891 385.17435547 137.21337891 385.17435547 136.375 383.9375 C135.82972656 383.13699219 135.28445313 382.33648437 134.72265625 381.51171875 C131.88291164 376.95711451 131.75342443 372.46319818 132.3125 367.25 C133.23534527 363.64727653 134.29373509 360.12055393 135.4375 356.58203125 C136.33150676 353.17762157 136.85224816 350.73426713 136.3125 347.25 C132.30516703 343.05007801 127.28169773 341.49858854 121.95703125 339.49609375 C119.3125 338.25 119.3125 338.25 117.3125 335.25 C116.4611112 329.02491045 116.96255513 322.65970827 120.3125 317.25 C125.00560207 311.93575207 131.06478444 308.35213439 137.08984375 304.73046875 C139.42361752 303.44150757 139.42361752 303.44150757 140.3125 301.25 C140.97685653 295.71369562 139.85813198 292.56705695 136.80859375 288.109375 C132.64578993 282.9357598 128.04412793 279.59418512 121.40625 278.7578125 C119.87523063 278.62747031 118.34396441 278.50000455 116.8125 278.375 C104.14305842 277.12815799 93.80068827 274.25041366 84.9375 264.6875 C81.00354347 258.7865652 80.9598285 253.43767285 80.83398438 246.57617188 C80.58854478 239.84154877 78.87256529 235.50950009 73.94921875 230.75390625 C67.6840423 225.54032813 60.04014712 222.83998306 52.60351562 219.70117188 C41.75617305 214.95428993 41.75617305 214.95428993 38.3125 209.25 C34.79330182 199.57935786 36.20685649 189.73174622 40.20703125 180.50390625 C41.66153854 177.53835606 43.34131812 174.89877566 45.3125 172.25 C45.910625 171.404375 46.50875 170.55875 47.125 169.6875 C52.71378028 163.46000198 59.41362017 160.78464534 67.0625 157.875 C84.84598674 150.82705882 99.93020131 140.71427243 108.55078125 123.109375 C114.0551881 109.67297675 109.06786667 92.26807752 103.81640625 79.5078125 C99.06283854 69.21047361 93.54321956 60.18118388 85.3125 52.25 C84.74281494 51.68474609 84.17312988 51.11949219 83.58618164 50.53710938 C78.68491848 45.91523717 74.16286104 43.56316073 67.75 41.625 C66.84668945 41.33923096 65.94337891 41.05346191 65.01269531 40.7590332 C39.90631319 33.060346 8.12401235 25.38840774 -17.2265625 36.34765625 C-20.68034826 38.24540779 -22.34573343 39.46393689 -23.9375 43.125 C-23.54408192 48.04272597 -21.63520591 51.29182256 -18.234375 54.7109375 C-10.02835534 61.40143101 0.32881282 65.78493625 9.76171875 70.46484375 C10.47392578 70.81820801 11.18613281 71.17157227 11.91992188 71.53564453 C13.26385773 72.19909456 14.61007274 72.85795646 15.95898438 73.51123047 C22.65811459 76.79590871 29.62247697 80.49380675 33.3125 87.25 C33.91922895 90.61080254 33.46609157 93.0606586 32.3125 96.25 C27.97274637 101.93320008 21.90522337 105.81252847 16 109.6875 C14.3120939 110.82298573 12.62587907 111.96098978 10.94140625 113.1015625 C9.74088623 113.91415527 9.74088623 113.91415527 8.51611328 114.74316406 C-2.01625868 121.78334356 -2.01625868 121.78334356 -8.6875 132.25 C-8.75313948 136.1883687 -8.41116606 138.23686752 -6.125 141.4375 C-3.3578744 143.49510622 -0.5332211 144.91110481 2.60546875 146.3203125 C4.3125 147.25 4.3125 147.25 5.3125 149.25 C6.63277629 161.32728145 2.51345032 172.62101562 -4.6875 182.25 C-8.94085686 187.09684852 -13.12700004 190.22168868 -19.58984375 191.23046875 C-25.29375016 191.28357775 -29.79062822 187.03862534 -33.6875 183.25 C-34.76184339 182.01016432 -35.82351436 180.75927923 -36.875 179.5 C-47.03577667 167.63830036 -60.26013244 158.58627608 -75.95703125 156.8984375 C-83.57907884 156.56125728 -88.51745812 157.79458028 -94.6875 162.25 C-95.574375 162.806875 -96.46125 163.36375 -97.375 163.9375 C-102.73662376 169.29912376 -106.77171677 176.28400422 -107 183.9375 C-106.92105436 189.95491236 -105.26135157 194.26818925 -101.33203125 198.8203125 C-97.66220976 202.26384472 -94.58986947 202.92654469 -89.6875 203.25 C-86.99116548 202.70303714 -84.49480692 202.09466458 -81.875 201.3125 C-67.69175173 197.46086625 -67.69175173 197.46086625 -60.75 200.5625 C-54.97592269 208.08629771 -54.92052681 218.97032097 -53.86474609 228.10498047 C-52.33265839 240.7048877 -49.3145237 251.67559628 -39.53173828 260.17236328 C-34.14454311 264.10755907 -28.04724046 266.54075522 -21.9375 269.125 C-20.62302451 269.69636993 -19.30921694 270.26927901 -17.99609375 270.84375 C-12.92293073 273.05375577 -7.83365848 275.21483 -2.6875 277.25 C-2.6875 277.91 -2.6875 278.57 -2.6875 279.25 C-3.45489502 279.4452124 -4.22229004 279.6404248 -5.01293945 279.84155273 C-21.45159067 284.05161496 -37.60616015 288.6579942 -53.6640625 294.171875 C-54.664375 294.50928711 -55.6646875 294.84669922 -56.6953125 295.19433594 C-58.72053134 295.90884689 -60.72652748 296.67990769 -62.7109375 297.50097656 C-70.54696658 300.5841292 -75.53584751 300.16251334 -83.4375 297.5 C-84.43265625 297.19578125 -85.4278125 296.8915625 -86.453125 296.578125 C-88.87612585 295.83258628 -91.28442453 295.05701253 -93.6875 294.25 C-92.41039599 290.41868798 -90.88038632 289.79099858 -87.5625 287.5625 C-81.83391151 283.51966802 -75.97136679 279.10160036 -73.6875 272.25 C-72.90852912 265.77560268 -73.7554737 260.53751115 -77.6875 255.25 C-85.22443456 247.3982549 -96.57216767 244.88974702 -106.64282227 241.76367188 C-121.6488143 237.09633777 -135.36793845 232.35526128 -147.6875 222.25 C-148.41453125 221.68539062 -149.1415625 221.12078125 -149.890625 220.5390625 C-171.59120024 202.89699179 -178.78650248 171.43640885 -182.6875 145.25 C-196.14035166 172.94283825 -203.90283696 203.17391125 -203.875 234.0625 C-203.87564453 234.84149658 -203.87628906 235.62049316 -203.87695312 236.4230957 C-203.78800123 246.73646158 -202.72765128 256.99648741 -201.6875 267.25 C-202.70328125 267.34796875 -203.7190625 267.4459375 -204.765625 267.546875 C-212.7050675 268.38474451 -219.89730252 269.63349577 -227.4296875 272.4453125 C-229.6875 273.25 -229.6875 273.25 -231.6875 273.25 C-241.87595517 213.70194161 -227.87004428 151.19078635 -193.48095703 101.50683594 C-190.99061612 98.00051947 -188.36709208 94.61281537 -185.6875 91.25 C-185.00558594 90.37601562 -184.32367188 89.50203125 -183.62109375 88.6015625 C-164.60016897 64.71156121 -141.86805604 45.81949734 -115.6875 30.25 C-115.06230469 29.87536621 -114.43710938 29.50073242 -113.79296875 29.11474609 C-88.09425525 13.93626537 -58.10011936 5.25938794 -28.6875 1.25 C-27.95265381 1.146875 -27.21780762 1.04375 -26.46069336 0.9375 C-17.6872901 -0.11965026 -8.82355347 0.00615827 0 0 Z " fill="#000000" transform="translate(275.6875,11.75)"/>
<path d="M0 0 C1.36659665 0.33459386 1.36659665 0.33459386 2.76080132 0.67594719 C12.83523344 3.159959 22.86952851 5.79862221 32.89892578 8.45751953 C34.88274702 8.98148183 36.86662481 9.50523004 38.85055542 10.02877808 C44.00548629 11.38979459 49.15959406 12.75390251 54.3135376 14.11865234 C58.51476709 15.23055276 62.71659049 16.34019869 66.91844368 17.44973946 C71.97463477 18.78492067 77.03056996 20.1210694 82.08642578 21.45751953 C83.03293125 21.70769962 83.97943672 21.95787971 84.95462418 22.21564102 C86.78618204 22.69993457 88.61765978 23.18453128 90.449049 23.6694622 C92.15995192 24.12226242 93.87111092 24.57409642 95.58255196 25.02485847 C99.95850863 26.18063 104.31001398 27.39628126 108.65625 28.66015625 C115.19284421 30.43472031 120.19501682 30.21485848 126.52001953 27.73486328 C128.28539062 27.05919312 128.28539062 27.05919312 130.08642578 26.36987305 C130.70549805 26.12810333 131.32457031 25.88633362 131.96240234 25.63723755 C163.1865867 13.49488345 193.56468597 4.72324893 227.32861328 5.82470703 C227.65861328 6.48470703 227.98861328 7.14470703 228.32861328 7.82470703 C224.36593373 9.62690251 220.4006063 11.42310538 216.43286133 13.21411133 C215.08708987 13.82254872 213.7420192 14.43253888 212.39770508 15.04418945 C205.146051 18.34235715 197.96587161 21.50251103 190.32861328 23.82470703 C190.32861328 27.45470703 190.32861328 31.08470703 190.32861328 34.82470703 C191.60607422 34.20466797 192.88353516 33.58462891 194.19970703 32.94580078 C198.14412677 31.03744667 202.10073031 29.156653 206.06298828 27.28564453 C210.60474323 25.13902501 215.11468094 22.94219947 219.60716248 20.69450378 C222.51023941 19.2517145 225.42923703 17.84322924 228.35159302 16.43997192 C229.78434222 15.74312095 231.21042376 15.03237556 232.62911987 14.30734253 C245.39805585 7.79991748 245.39805585 7.79991748 253.03173828 10.23876953 C259.37303644 12.98651701 264.61639169 16.09585387 268.32861328 22.01220703 C270.46952872 30.17444714 270.18748116 36.93677426 265.99658203 44.35595703 C221.6793238 109.94965071 86.94878894 131.1274732 -32.61669922 159.68798828 C-46.00893775 162.25797405 -61.18392966 164.784929 -73.67138672 157.82470703 C-77.31016628 155.13201015 -78.41083706 153.72034649 -79.67138672 149.38720703 C-79.67138672 142.44847333 -75.64178531 138.35845509 -71.29248047 133.36376953 C-69.67138672 131.82470703 -69.67138672 131.82470703 -67.67138672 131.82470703 C-73.04995063 120.55623687 -79.17833107 109.77371794 -85.45385742 98.984375 C-88.16196861 94.18069512 -89.55876772 90.46350783 -88.67138672 84.82470703 C-86.47448312 80.87028056 -83.90011809 78.97821235 -79.65576172 77.39111328 C-70.06880507 74.6546788 -62.29868955 76.64752062 -53.60888672 81.19970703 C-52.61924927 81.70123291 -52.61924927 81.70123291 -51.60961914 82.21289062 C-47.26258208 84.43011162 -42.97452636 86.7460712 -38.69482422 89.09033203 C-37.66752197 89.64543457 -36.64021973 90.20053711 -35.58178711 90.77246094 C-33.53848608 91.87873236 -31.50350488 93.00052987 -29.4777832 94.13867188 C-28.53749268 94.6460791 -27.59720215 95.15348633 -26.62841797 95.67626953 C-25.79286377 96.13855957 -24.95730957 96.60084961 -24.09643555 97.07714844 C-19.93226739 98.36081731 -17.3342034 96.17211846 -13.64794922 94.23999023 C-12.54193359 93.62470459 -11.43591797 93.00941895 -10.29638672 92.37548828 C-9.69060791 92.03978317 -9.0848291 91.70407806 -8.46069336 91.35820007 C-6.52937802 90.2872934 -4.60029115 89.21244909 -2.67138672 88.13720703 C-0.15124059 86.73622813 2.36981252 85.33688797 4.89111328 83.93798828 C5.81525024 83.4247551 5.81525024 83.4247551 6.75805664 82.90115356 C12.91802718 79.48585547 19.11790166 76.1467308 25.32861328 72.82470703 C21.9224504 70.02656665 18.44466821 67.50551192 14.75048828 65.10205078 C13.68072754 64.4043457 12.6109668 63.70664062 11.50878906 62.98779297 C10.36544386 62.24585898 9.22205091 61.50399856 8.07861328 60.76220703 C6.89732815 59.99320524 5.71617685 59.22399784 4.53515625 58.45458984 C1.13535903 56.24094371 -2.26760112 54.03221576 -5.67138672 51.82470703 C-6.51475586 51.27766113 -7.358125 50.73061523 -8.22705078 50.16699219 C-11.64788547 47.94950753 -15.07096308 45.73552445 -18.49560547 43.52392578 C-23.45544322 40.32001793 -28.40752733 37.10419703 -33.35888672 33.88720703 C-34.19726074 33.34290039 -35.03563477 32.79859375 -35.89941406 32.23779297 C-37.46262856 31.22184615 -39.02394606 30.20297221 -40.58300781 29.18066406 C-41.8825736 28.33687304 -43.19142542 27.50700514 -44.51367188 26.69921875 C-47.60002814 24.78132878 -49.55961803 23.35099176 -50.67138672 19.82470703 C-51.12124177 16.57975262 -50.8132376 13.89732394 -49.67138672 10.82470703 C-36.82894341 -3.46949073 -17.40591518 -4.37080376 0 0 Z " fill="#000000" transform="translate(88.67138671875,306.17529296875)"/>
<path d="M0 0 C2.55573104 2.55573104 2.49821654 4.01472176 2.9921875 7.5703125 C3.15686523 8.74239258 3.32154297 9.91447266 3.49121094 11.12207031 C3.65911133 12.40178711 3.82701172 13.68150391 4 15 C4.08721313 15.65577026 4.17442627 16.31154053 4.26428223 16.98718262 C4.82421843 21.21591267 5.35208167 25.44780966 5.85986328 29.68310547 C6.03624649 31.14127165 6.21656956 32.5989668 6.40087891 34.05615234 C10.32114665 65.06317233 10.32114665 65.06317233 1 77.1875 C-4.13647111 82.69954105 -11.65234921 87.04823927 -19.25 87.8125 C-24.63236868 86.64632012 -27.28009876 83.93125926 -31 80 C-31.721875 79.23945313 -32.44375 78.47890625 -33.1875 77.6953125 C-37.04032675 73.50803898 -40.68419315 69.18281291 -44.25 64.75 C-47.82850264 60.32066457 -51.60005558 56.14305784 -55.5 52 C-60.95037542 46.20749116 -66.09324274 40.26620516 -71 34 C-71.57621094 33.29230469 -72.15242187 32.58460938 -72.74609375 31.85546875 C-74 30 -74 30 -73.9375 27.4375 C-72.78405658 24.43854712 -71.67006149 23.7367881 -69 22 C-66.61888123 20.98280334 -66.61888123 20.98280334 -63.94702148 20.07055664 C-62.43911293 19.54970238 -62.43911293 19.54970238 -60.90074158 19.01832581 C-59.81845779 18.65262985 -58.73617401 18.2869339 -57.62109375 17.91015625 C-56.49864761 17.52435898 -55.37620148 17.13856171 -54.21974182 16.74107361 C-50.6279534 15.50806836 -47.0328701 14.28501726 -43.4375 13.0625 C-39.86788635 11.84141166 -36.29897255 10.61829843 -32.73023987 9.39463806 C-30.5114617 8.63466243 -28.29204683 7.87654215 -26.07188416 7.12062073 C-20.11902821 5.09031296 -14.20389991 2.99004847 -8.32142639 0.76316833 C-5.4238168 -0.18942008 -3.01948199 -0.46453569 0 0 Z " fill="#000000" transform="translate(280,413)"/>
</svg>
